<mxfile host="app.diagrams.net" modified="2023-11-16T13:19:43.607Z" agent="Mozilla/5.0 (Windows NT 10.0; Win64; x64; rv:109.0) Gecko/20100101 Firefox/119.0" etag="U4zjpCPDmOUaeOGAlr1g" version="22.1.1" type="device">
  <diagram name="Page-1" id="Ryg1_IS8xAYSvMw1XhSv">
    <mxGraphModel dx="966" dy="978" grid="1" gridSize="10" guides="1" tooltips="1" connect="1" arrows="1" fold="1" page="1" pageScale="1" pageWidth="827" pageHeight="1169" math="0" shadow="0">
      <root>
        <mxCell id="0" />
        <mxCell id="1" parent="0" />
        <mxCell id="5x4T8rexubpZx18Tq6US-67" value="" style="rounded=0;whiteSpace=wrap;html=1;fillColor=none;strokeWidth=2;strokeColor=#d6b656;" vertex="1" parent="1">
          <mxGeometry x="960" y="480" width="320" height="360" as="geometry" />
        </mxCell>
        <mxCell id="5x4T8rexubpZx18Tq6US-16" value="fileB" style="rounded=0;whiteSpace=wrap;html=1;strokeWidth=2;fillColor=#fff2cc;strokeColor=#d6b656;dashed=1;" vertex="1" parent="1">
          <mxGeometry x="1000" y="680" width="80" height="100" as="geometry" />
        </mxCell>
        <mxCell id="5x4T8rexubpZx18Tq6US-17" value="" style="group;strokeWidth=2;" vertex="1" connectable="0" parent="1">
          <mxGeometry x="920" y="400" width="80" height="120" as="geometry" />
        </mxCell>
        <mxCell id="5x4T8rexubpZx18Tq6US-18" value="files" style="shape=note;whiteSpace=wrap;html=1;backgroundOutline=1;darkOpacity=0.05;strokeWidth=2;fillColor=#fff2cc;strokeColor=#d6b656;" vertex="1" parent="5x4T8rexubpZx18Tq6US-17">
          <mxGeometry width="80" height="100" as="geometry" />
        </mxCell>
        <mxCell id="5x4T8rexubpZx18Tq6US-19" value="&lt;font face=&quot;Courier New&quot;&gt;&lt;b&gt;.py&lt;/b&gt;&lt;/font&gt;" style="html=1;strokeWidth=2;shape=manualInput;whiteSpace=wrap;rounded=1;size=13;arcSize=12;fillColor=#fff2cc;strokeColor=#d6b656;" vertex="1" parent="5x4T8rexubpZx18Tq6US-17">
          <mxGeometry y="70" width="80" height="50" as="geometry" />
        </mxCell>
        <mxCell id="5x4T8rexubpZx18Tq6US-40" value="" style="group;strokeWidth=2;" vertex="1" connectable="0" parent="1">
          <mxGeometry x="1000" y="880" width="80" height="120" as="geometry" />
        </mxCell>
        <mxCell id="5x4T8rexubpZx18Tq6US-41" value="fileA" style="shape=note;whiteSpace=wrap;html=1;backgroundOutline=1;darkOpacity=0.05;strokeWidth=2;fillColor=#d5e8d4;strokeColor=#82b366;" vertex="1" parent="5x4T8rexubpZx18Tq6US-40">
          <mxGeometry width="80" height="100" as="geometry" />
        </mxCell>
        <mxCell id="5x4T8rexubpZx18Tq6US-42" value="&lt;font face=&quot;Courier New&quot;&gt;&lt;b&gt;csv&lt;/b&gt;&lt;/font&gt;" style="html=1;strokeWidth=2;shape=manualInput;whiteSpace=wrap;rounded=1;size=13;arcSize=12;fillColor=#d5e8d4;strokeColor=#82b366;" vertex="1" parent="5x4T8rexubpZx18Tq6US-40">
          <mxGeometry y="70" width="80" height="50" as="geometry" />
        </mxCell>
        <mxCell id="5x4T8rexubpZx18Tq6US-43" value="" style="group;strokeWidth=2;" vertex="1" connectable="0" parent="1">
          <mxGeometry x="1160" y="880" width="80" height="120" as="geometry" />
        </mxCell>
        <mxCell id="5x4T8rexubpZx18Tq6US-44" value="fileB" style="shape=note;whiteSpace=wrap;html=1;backgroundOutline=1;darkOpacity=0.05;strokeWidth=2;fillColor=#d5e8d4;strokeColor=#82b366;" vertex="1" parent="5x4T8rexubpZx18Tq6US-43">
          <mxGeometry width="80" height="100" as="geometry" />
        </mxCell>
        <mxCell id="5x4T8rexubpZx18Tq6US-45" value="&lt;font face=&quot;Courier New&quot;&gt;&lt;b&gt;csv&lt;/b&gt;&lt;/font&gt;" style="html=1;strokeWidth=2;shape=manualInput;whiteSpace=wrap;rounded=1;size=13;arcSize=12;fillColor=#d5e8d4;strokeColor=#82b366;" vertex="1" parent="5x4T8rexubpZx18Tq6US-43">
          <mxGeometry y="70" width="80" height="50" as="geometry" />
        </mxCell>
        <mxCell id="5x4T8rexubpZx18Tq6US-50" value="" style="group;strokeWidth=2;" vertex="1" connectable="0" parent="1">
          <mxGeometry x="1320" y="880" width="80" height="120" as="geometry" />
        </mxCell>
        <mxCell id="5x4T8rexubpZx18Tq6US-51" value="results" style="shape=note;whiteSpace=wrap;html=1;backgroundOutline=1;darkOpacity=0.05;strokeWidth=2;fillColor=#d5e8d4;strokeColor=#82b366;" vertex="1" parent="5x4T8rexubpZx18Tq6US-50">
          <mxGeometry width="80" height="100" as="geometry" />
        </mxCell>
        <mxCell id="5x4T8rexubpZx18Tq6US-52" value="&lt;font face=&quot;Courier New&quot;&gt;&lt;b&gt;csv&lt;/b&gt;&lt;/font&gt;" style="html=1;strokeWidth=2;shape=manualInput;whiteSpace=wrap;rounded=1;size=13;arcSize=12;fillColor=#d5e8d4;strokeColor=#82b366;" vertex="1" parent="5x4T8rexubpZx18Tq6US-50">
          <mxGeometry y="70" width="80" height="50" as="geometry" />
        </mxCell>
        <mxCell id="5x4T8rexubpZx18Tq6US-54" value="" style="group" vertex="1" connectable="0" parent="1">
          <mxGeometry x="1160" y="680" width="80" height="118" as="geometry" />
        </mxCell>
        <mxCell id="5x4T8rexubpZx18Tq6US-55" value="fileB" style="rounded=0;whiteSpace=wrap;html=1;strokeWidth=2;fillColor=#fff2cc;strokeColor=#d6b656;dashed=1;" vertex="1" parent="5x4T8rexubpZx18Tq6US-54">
          <mxGeometry width="80" height="100" as="geometry" />
        </mxCell>
        <mxCell id="5x4T8rexubpZx18Tq6US-56" value="" style="strokeWidth=2;html=1;shape=mxgraph.flowchart.document2;whiteSpace=wrap;size=0.25;strokeColor=#d6b656;align=center;verticalAlign=middle;fontFamily=Helvetica;fontSize=12;fontColor=default;fillColor=#fff2cc;rotation=-180;dashed=1;" vertex="1" parent="5x4T8rexubpZx18Tq6US-54">
          <mxGeometry y="70" width="80" height="48" as="geometry" />
        </mxCell>
        <mxCell id="5x4T8rexubpZx18Tq6US-57" value="&lt;font face=&quot;Courier New&quot;&gt;&lt;b&gt;class&lt;/b&gt;&lt;/font&gt;" style="text;html=1;strokeColor=none;fillColor=none;align=center;verticalAlign=middle;whiteSpace=wrap;rounded=0;fontSize=12;fontFamily=Helvetica;fontColor=default;" vertex="1" parent="5x4T8rexubpZx18Tq6US-54">
          <mxGeometry x="10" y="79" width="60" height="30" as="geometry" />
        </mxCell>
        <mxCell id="5x4T8rexubpZx18Tq6US-58" value="" style="strokeWidth=2;html=1;shape=mxgraph.flowchart.document2;whiteSpace=wrap;size=0.25;strokeColor=#d6b656;align=center;verticalAlign=middle;fontFamily=Helvetica;fontSize=12;fontColor=default;fillColor=#fff2cc;rotation=-180;dashed=1;" vertex="1" parent="1">
          <mxGeometry x="1000" y="750" width="80" height="48" as="geometry" />
        </mxCell>
        <mxCell id="5x4T8rexubpZx18Tq6US-59" value="&lt;font face=&quot;Courier New&quot;&gt;&lt;b&gt;class&lt;/b&gt;&lt;/font&gt;" style="text;html=1;strokeColor=none;fillColor=none;align=center;verticalAlign=middle;whiteSpace=wrap;rounded=0;fontSize=12;fontFamily=Helvetica;fontColor=default;" vertex="1" parent="1">
          <mxGeometry x="1010" y="759" width="60" height="30" as="geometry" />
        </mxCell>
        <mxCell id="5x4T8rexubpZx18Tq6US-64" value="fileT" style="rounded=0;whiteSpace=wrap;html=1;strokeWidth=2;fillColor=#fff2cc;strokeColor=#d6b656;dashed=1;" vertex="1" parent="1">
          <mxGeometry x="1080" y="521" width="80" height="100" as="geometry" />
        </mxCell>
        <mxCell id="5x4T8rexubpZx18Tq6US-65" value="" style="strokeWidth=2;html=1;shape=mxgraph.flowchart.document2;whiteSpace=wrap;size=0.25;strokeColor=#d6b656;align=center;verticalAlign=middle;fontFamily=Helvetica;fontSize=12;fontColor=default;fillColor=#fff2cc;rotation=-180;dashed=1;" vertex="1" parent="1">
          <mxGeometry x="1080" y="591" width="80" height="48" as="geometry" />
        </mxCell>
        <mxCell id="5x4T8rexubpZx18Tq6US-66" value="&lt;font face=&quot;Courier New&quot;&gt;&lt;b&gt;class&lt;/b&gt;&lt;/font&gt;" style="text;html=1;strokeColor=none;fillColor=none;align=center;verticalAlign=middle;whiteSpace=wrap;rounded=0;fontSize=12;fontFamily=Helvetica;fontColor=default;" vertex="1" parent="1">
          <mxGeometry x="1090" y="600" width="60" height="30" as="geometry" />
        </mxCell>
        <mxCell id="5x4T8rexubpZx18Tq6US-78" value="FileT" style="swimlane;childLayout=stackLayout;horizontal=1;startSize=50;horizontalStack=0;rounded=1;fontSize=14;fontStyle=0;strokeWidth=2;resizeParent=0;resizeLast=1;shadow=0;dashed=0;align=center;arcSize=4;whiteSpace=wrap;html=1;fillColor=#fff2cc;strokeColor=#d6b656;" vertex="1" parent="1">
          <mxGeometry x="1640" y="439" width="160" height="200" as="geometry" />
        </mxCell>
        <mxCell id="5x4T8rexubpZx18Tq6US-79" value="&lt;div&gt;- init( type, path )&lt;br&gt;&lt;/div&gt;&lt;div&gt;&lt;br&gt;&lt;/div&gt;&lt;div&gt;+ var Type&lt;/div&gt;&lt;div&gt;+ var Path&lt;/div&gt;&lt;div&gt;&lt;br&gt;&lt;/div&gt;&lt;div&gt;+ def ReadFile(path)&lt;/div&gt;&lt;div&gt;&lt;br&gt;&lt;/div&gt;&lt;div&gt;@static&lt;/div&gt;&lt;div&gt;+ def Compare(A, B)&lt;/div&gt;" style="align=left;strokeColor=none;fillColor=none;spacingLeft=4;fontSize=12;verticalAlign=top;resizable=0;rotatable=0;part=1;html=1;" vertex="1" parent="5x4T8rexubpZx18Tq6US-78">
          <mxGeometry y="50" width="160" height="150" as="geometry" />
        </mxCell>
        <mxCell id="5x4T8rexubpZx18Tq6US-95" style="rounded=0;orthogonalLoop=1;jettySize=auto;html=1;exitX=0.75;exitY=0;exitDx=0;exitDy=0;entryX=0.25;entryY=1;entryDx=0;entryDy=0;endArrow=block;endFill=0;" edge="1" parent="1" source="5x4T8rexubpZx18Tq6US-80" target="5x4T8rexubpZx18Tq6US-79">
          <mxGeometry relative="1" as="geometry" />
        </mxCell>
        <mxCell id="5x4T8rexubpZx18Tq6US-80" value="FileA( FileT )" style="swimlane;childLayout=stackLayout;horizontal=1;startSize=50;horizontalStack=0;rounded=1;fontSize=14;fontStyle=0;strokeWidth=2;resizeParent=0;resizeLast=1;shadow=0;dashed=0;align=center;arcSize=4;whiteSpace=wrap;html=1;fillColor=#fff2cc;strokeColor=#d6b656;" vertex="1" parent="1">
          <mxGeometry x="1520" y="680" width="160" height="200" as="geometry" />
        </mxCell>
        <mxCell id="5x4T8rexubpZx18Tq6US-81" value="&lt;div&gt;&amp;nbsp;@overirde&lt;br&gt;&lt;/div&gt;&lt;div&gt;- init( typeA, path )&lt;br&gt;&lt;/div&gt;&lt;div&gt;&lt;br&gt;&lt;/div&gt;&lt;div&gt;+ def Formalize()&lt;/div&gt;" style="align=left;strokeColor=none;fillColor=none;spacingLeft=4;fontSize=12;verticalAlign=top;resizable=0;rotatable=0;part=1;html=1;" vertex="1" parent="5x4T8rexubpZx18Tq6US-80">
          <mxGeometry y="50" width="160" height="150" as="geometry" />
        </mxCell>
        <mxCell id="5x4T8rexubpZx18Tq6US-96" style="rounded=0;orthogonalLoop=1;jettySize=auto;html=1;exitX=0.25;exitY=0;exitDx=0;exitDy=0;entryX=0.75;entryY=1;entryDx=0;entryDy=0;endArrow=block;endFill=0;" edge="1" parent="1" source="5x4T8rexubpZx18Tq6US-82" target="5x4T8rexubpZx18Tq6US-79">
          <mxGeometry relative="1" as="geometry" />
        </mxCell>
        <mxCell id="5x4T8rexubpZx18Tq6US-82" value="FileB( FileT )" style="swimlane;childLayout=stackLayout;horizontal=1;startSize=50;horizontalStack=0;rounded=1;fontSize=14;fontStyle=0;strokeWidth=2;resizeParent=0;resizeLast=1;shadow=0;dashed=0;align=center;arcSize=4;whiteSpace=wrap;html=1;fillColor=#fff2cc;strokeColor=#d6b656;" vertex="1" parent="1">
          <mxGeometry x="1760" y="680" width="160" height="200" as="geometry" />
        </mxCell>
        <mxCell id="5x4T8rexubpZx18Tq6US-83" value="@overirde&lt;br&gt;- init( typeB, path )&lt;br&gt;&lt;div&gt;&lt;br&gt;&lt;/div&gt;&lt;div&gt;+ def Formalize()&lt;/div&gt;" style="align=left;strokeColor=none;fillColor=none;spacingLeft=4;fontSize=12;verticalAlign=top;resizable=0;rotatable=0;part=1;html=1;" vertex="1" parent="5x4T8rexubpZx18Tq6US-82">
          <mxGeometry y="50" width="160" height="150" as="geometry" />
        </mxCell>
        <mxCell id="5x4T8rexubpZx18Tq6US-89" style="edgeStyle=orthogonalEdgeStyle;rounded=0;orthogonalLoop=1;jettySize=auto;html=1;entryX=0.5;entryY=0;entryDx=0;entryDy=0;entryPerimeter=0;startArrow=classic;startFill=1;endArrow=none;endFill=0;" edge="1" parent="1" source="5x4T8rexubpZx18Tq6US-58" target="5x4T8rexubpZx18Tq6US-41">
          <mxGeometry relative="1" as="geometry" />
        </mxCell>
        <mxCell id="5x4T8rexubpZx18Tq6US-91" style="edgeStyle=orthogonalEdgeStyle;rounded=0;orthogonalLoop=1;jettySize=auto;html=1;exitX=0.5;exitY=0;exitDx=0;exitDy=0;exitPerimeter=0;entryX=0.5;entryY=0;entryDx=0;entryDy=0;entryPerimeter=0;startArrow=classic;startFill=1;endArrow=none;endFill=0;" edge="1" parent="1" source="5x4T8rexubpZx18Tq6US-56" target="5x4T8rexubpZx18Tq6US-44">
          <mxGeometry relative="1" as="geometry" />
        </mxCell>
        <mxCell id="5x4T8rexubpZx18Tq6US-92" style="edgeStyle=orthogonalEdgeStyle;rounded=0;orthogonalLoop=1;jettySize=auto;html=1;entryX=0.5;entryY=0;entryDx=0;entryDy=0;entryPerimeter=0;" edge="1" parent="1" source="5x4T8rexubpZx18Tq6US-64" target="5x4T8rexubpZx18Tq6US-51">
          <mxGeometry relative="1" as="geometry" />
        </mxCell>
        <mxCell id="5x4T8rexubpZx18Tq6US-93" style="rounded=0;orthogonalLoop=1;jettySize=auto;html=1;exitX=0.75;exitY=0;exitDx=0;exitDy=0;entryX=0.75;entryY=0;entryDx=0;entryDy=0;entryPerimeter=0;endArrow=block;endFill=0;" edge="1" parent="1" source="5x4T8rexubpZx18Tq6US-16" target="5x4T8rexubpZx18Tq6US-65">
          <mxGeometry relative="1" as="geometry" />
        </mxCell>
        <mxCell id="5x4T8rexubpZx18Tq6US-94" style="rounded=0;orthogonalLoop=1;jettySize=auto;html=1;exitX=0.25;exitY=0;exitDx=0;exitDy=0;entryX=0.25;entryY=0;entryDx=0;entryDy=0;entryPerimeter=0;endArrow=block;endFill=0;" edge="1" parent="1" source="5x4T8rexubpZx18Tq6US-55" target="5x4T8rexubpZx18Tq6US-65">
          <mxGeometry relative="1" as="geometry" />
        </mxCell>
        <mxCell id="5x4T8rexubpZx18Tq6US-97" value="&lt;h1&gt;Abstract Class&lt;br&gt;&lt;/h1&gt;&lt;p&gt;FileT is the Abstract main File class.&lt;br&gt;&lt;/p&gt;" style="text;html=1;strokeColor=none;fillColor=none;spacing=5;spacingTop=-20;whiteSpace=wrap;overflow=hidden;rounded=0;" vertex="1" parent="1">
          <mxGeometry x="1840" y="439" width="190" height="120" as="geometry" />
        </mxCell>
        <mxCell id="5x4T8rexubpZx18Tq6US-98" value="&lt;h1&gt;Sub Class&lt;br&gt;&lt;/h1&gt;&lt;p&gt;FileA &amp;amp; FileB are the sub classes of FileT.&lt;/p&gt;&lt;p&gt;FileA &amp;amp; FileB inherit elements of FileT&lt;br&gt;&lt;/p&gt;" style="text;html=1;strokeColor=none;fillColor=none;spacing=5;spacingTop=-20;whiteSpace=wrap;overflow=hidden;rounded=0;" vertex="1" parent="1">
          <mxGeometry x="1960" y="678" width="190" height="120" as="geometry" />
        </mxCell>
      </root>
    </mxGraphModel>
  </diagram>
</mxfile>
